<svg width="37" height="37" viewBox="0 0 37 37" fill="none" xmlns="http://www.w3.org/2000/svg">
<rect x="0.344971" y="0.464844" width="36" height="36" rx="4" fill="#6516DE"/>
<path d="M27.6744 19.3476C27.6744 24.4919 23.4892 28.6771 18.3449 28.6771C13.2007 28.6771 9.01544 24.4919 9.01544 19.3476C9.01544 14.2033 13.2007 10.0181 18.3449 10.0181V11.7827L21.7824 9.05299L18.3449 6.32324V8.08787C12.1363 8.08787 7.08521 13.139 7.08521 19.3476C7.08521 25.5562 12.1363 30.6073 18.3449 30.6073C24.5536 30.6073 29.6047 25.5562 29.6047 19.3476H27.6744Z" fill="white"/>
<path d="M16.0519 19.866C16.2156 19.751 16.3805 19.6465 16.5472 19.5525C16.7138 19.4586 16.8728 19.3602 17.0244 19.2571C17.1516 19.1723 17.2727 19.0814 17.3879 18.9845C17.5028 18.8876 17.6014 18.78 17.6832 18.6619C17.765 18.5437 17.83 18.412 17.8785 18.2665C17.927 18.1211 17.9512 17.9546 17.9512 17.7667C17.9512 17.2518 17.7709 16.8504 17.4105 16.5625C17.05 16.2749 16.5213 16.1309 15.8247 16.1309C15.5642 16.1309 15.3097 16.1522 15.0613 16.1945C14.8128 16.237 14.5781 16.296 14.357 16.3717C14.1358 16.4475 13.9344 16.5384 13.7527 16.6443C13.5709 16.7504 13.4224 16.867 13.3074 16.9942L14.398 18.2756C14.5918 18.0455 14.778 17.8788 14.9568 17.7757C15.1355 17.6728 15.3249 17.6213 15.5248 17.6213C15.6944 17.6213 15.8278 17.6576 15.9247 17.7303C16.0216 17.803 16.0701 17.9152 16.0701 18.0666C16.0701 18.1211 16.0565 18.1711 16.0293 18.2165C16.0019 18.2619 15.9397 18.318 15.8429 18.3845C15.7459 18.4513 15.6021 18.5376 15.4112 18.6436C15.2204 18.7496 14.9614 18.8905 14.6342 19.0662C14.3798 19.2057 14.1662 19.3479 13.9935 19.4933C13.8208 19.6387 13.68 19.8039 13.5709 19.9886C13.4618 20.1735 13.3831 20.381 13.3346 20.6112C13.286 20.8415 13.262 21.108 13.262 21.4109H18.0512V19.866H16.0519Z" fill="white"/>
<path d="M22.6677 19.8932V16.2217H21.4863V16.2217L18.6055 19.8931V21.438H20.9411V22.565H22.6677V21.4381H23.4675V19.8932H22.6677ZM21.141 19.8932H20.305L21.141 18.8027V19.8932Z" fill="white"/>
</svg>
