<svg width="37" height="37" viewBox="0 0 37 37" fill="none" xmlns="http://www.w3.org/2000/svg">
<rect x="0.74585" y="0.464844" width="36" height="36" rx="4" fill="#6516DE"/>
<g clip-path="url(#clip0)">
<g clip-path="url(#clip1)">
<path d="M22.4957 13.2266H14.9956C12.1013 13.2266 9.74561 15.5816 9.74561 18.4765C9.74561 21.3716 12.1013 23.7266 14.9956 23.7266H22.4957C25.3899 23.7266 27.7456 21.3716 27.7456 18.4765C27.7456 15.5816 25.3899 13.2266 22.4957 13.2266V13.2266ZM14.9956 21.4766C13.3412 21.4766 11.9956 20.1311 11.9956 18.4765C11.9956 16.8221 13.3412 15.4766 14.9956 15.4766C16.6501 15.4766 17.9957 16.8221 17.9957 18.4765C17.9957 20.1311 16.6501 21.4766 14.9956 21.4766Z" fill="white"/>
</g>
</g>
<defs>
<clipPath id="clip0">
<rect width="18" height="18" fill="white" transform="translate(9.74585 9.46484)"/>
</clipPath>
<clipPath id="clip1">
<rect width="18" height="18" fill="white" transform="translate(9.74561 9.46484)"/>
</clipPath>
</defs>
</svg>
