<svg width="37" height="37" viewBox="0 0 37 37" fill="none" xmlns="http://www.w3.org/2000/svg">
<rect x="0.54541" y="0.464844" width="36" height="36" rx="4" fill="#6516DE"/>
<g clip-path="url(#clip0)">
<path d="M9.89289 12.6328L18.1427 17.8827C18.2657 17.9607 18.406 17.9997 18.5455 17.9997C18.6857 17.9997 18.8252 17.9607 18.9482 17.8827L27.198 12.6328C27.414 12.4949 27.5453 12.2564 27.5453 11.9999C27.5453 11.7434 27.414 11.5049 27.198 11.3676L18.9482 6.11699C18.7022 5.961 18.3887 5.961 18.1427 6.11699L9.89289 11.3676C9.67689 11.5049 9.54565 11.7434 9.54565 11.9999C9.54562 12.2564 9.67689 12.4949 9.89289 12.6328Z" fill="white"/>
<path d="M27.1982 17.3669L24.8756 15.8887L19.7539 19.1481C19.3902 19.3784 18.9732 19.4999 18.5457 19.4999C18.1182 19.4999 17.7012 19.3784 17.3397 19.1489L12.2158 15.8887L9.89313 17.3669C9.67713 17.5049 9.5459 17.7434 9.5459 17.9999C9.5459 18.2564 9.67713 18.4949 9.89313 18.6321L18.143 23.8828C18.266 23.9608 18.4055 23.9998 18.5457 23.9998C18.6852 23.9998 18.8254 23.9608 18.9484 23.8828L27.1982 18.6321C27.4142 18.4949 27.5455 18.2564 27.5455 17.9999C27.5455 17.7434 27.4142 17.5049 27.1982 17.3669Z" fill="white"/>
</g>
<path d="M27.198 23.4685L24.8753 21.9902L19.7537 25.2497C19.3899 25.4799 18.973 25.6014 18.5455 25.6014C18.118 25.6014 17.701 25.4799 17.3395 25.2504L12.2156 21.9902L9.89289 23.4685C9.67689 23.6064 9.54565 23.8449 9.54565 24.1014C9.54565 24.3579 9.67689 24.5964 9.89289 24.7337L18.1427 29.9843C18.2657 30.0624 18.4052 30.1013 18.5455 30.1013C18.685 30.1013 18.8252 30.0624 18.9482 29.9843L27.198 24.7337C27.414 24.5964 27.5452 24.3579 27.5452 24.1014C27.5453 23.8449 27.414 23.6064 27.198 23.4685Z" fill="white"/>
<defs>
<clipPath id="clip0">
<rect width="18" height="18" fill="white" transform="translate(9.54541 6)"/>
</clipPath>
</defs>
</svg>
