<svg width="37" height="37" viewBox="0 0 37 37" fill="none" xmlns="http://www.w3.org/2000/svg">
<rect x="0.144531" y="0.464844" width="36" height="36" rx="4" fill="#6516DE"/>
<g clip-path="url(#clip0)">
<g clip-path="url(#clip1)">
<path d="M16.3743 21.6527H18.7642V23.0585H16.3743V21.6527ZM13.7383 21.477C13.2529 21.477 12.8596 21.8703 12.8596 22.3557C12.8596 22.8409 13.2529 23.2343 13.7383 23.2343C14.2236 23.2343 14.6169 22.8409 14.6169 22.3557C14.6169 21.8703 14.2236 21.477 13.7383 21.477ZM23.4738 17.1891H16.3743V18.5949H23.4738V17.1891ZM13.7383 17.0134C13.2529 17.0134 12.8596 17.4067 12.8596 17.8921C12.8596 18.3774 13.2529 18.7707 13.7383 18.7707C14.2236 18.7707 14.6169 18.3774 14.6169 17.8921C14.6169 17.4067 14.2236 17.0134 13.7383 17.0134ZM23.4738 12.9716H16.3743V14.3774H23.4738V12.9716ZM13.7383 12.7958C13.2529 12.7958 12.8596 13.1892 12.8596 13.6744C12.8596 14.1597 13.2529 14.5532 13.7383 14.5532C14.2236 14.5532 14.6169 14.1597 14.6169 13.6744C14.6169 13.1892 14.2236 12.7958 13.7383 12.7958ZM10.7508 24.8862V11.1088C10.7508 10.7211 11.0661 10.4058 11.4538 10.4058H25.2312C25.6187 10.4058 25.9341 10.7211 25.9341 11.1088V19.0519H27.3399V11.1088C27.3399 9.94606 26.394 9 25.2312 9H11.4538C10.291 9 9.34497 9.94606 9.34497 11.1088V24.8862C9.34497 26.049 10.291 26.9949 11.4538 26.9949H19.5726V25.5891H11.4538C11.0661 25.5891 10.7508 25.2738 10.7508 24.8862ZM26.3508 27L24.9509 25.6001C24.4773 25.8831 23.924 26.046 23.3333 26.046C21.5891 26.046 20.1701 24.627 20.1701 22.8829C20.1701 21.1387 21.5891 19.7196 23.3333 19.7196C25.0774 19.7196 26.4964 21.1387 26.4964 22.8829C26.4964 23.5282 26.302 24.1289 25.9689 24.6298L27.345 26.0059L26.3508 27ZM23.3333 24.6401C24.3023 24.6401 25.0906 23.8519 25.0906 22.8829C25.0906 21.9139 24.3023 21.1255 23.3333 21.1255C22.3643 21.1255 21.5759 21.9139 21.5759 22.8829C21.5759 23.8519 22.3643 24.6401 23.3333 24.6401Z" fill="white"/>
</g>
</g>
<defs>
<clipPath id="clip0">
<rect width="18" height="18" fill="white" transform="translate(9.14453 9.29492)"/>
</clipPath>
<clipPath id="clip1">
<rect width="18" height="18" fill="white" transform="translate(9.34497 9)"/>
</clipPath>
</defs>
</svg>
